<?xml version="1.0" encoding="UTF-8"?>
<svg version="1.1" xmlns="http://www.w3.org/2000/svg" width="500" height="500">
<path d="M0 0 C165 0 330 0 500 0 C500 165 500 330 500 500 C335 500 170 500 0 500 C0 335 0 170 0 0 Z " fill="#003F00" transform="translate(0,0)"/>
<path d="M0 0 C6.58897646 2.28221531 9.76873476 11.48222047 12.66015625 17.2265625 C13.72214496 19.30040877 14.78599439 21.37330309 15.8515625 23.4453125 C16.39055176 24.49460937 16.92954102 25.54390625 17.48486328 26.625 C19.9499546 31.36561765 22.51974066 36.04661505 25.09765625 40.7265625 C29.26168841 48.30087565 33.3109147 55.92600772 37.28515625 63.6015625 C42.02747261 72.75905891 46.95904188 81.78589255 52.09765625 90.7265625 C49.64177512 93.29135188 47.25602475 95.35890557 44.28515625 97.2890625 C39.07758331 101.14150494 36.17920846 106.11481423 33.09765625 111.7265625 C32.63359375 112.57089844 32.16953125 113.41523438 31.69140625 114.28515625 C27.66508591 122.35007229 25.93654304 130.96359919 24.09765625 139.7265625 C21.25969772 136.24921115 19.27868257 132.41770693 17.26171875 128.43359375 C16.9004892 127.72812912 16.53925964 127.02266449 16.16708374 126.29582214 C15.01539096 124.04536211 13.86873326 121.79238689 12.72265625 119.5390625 C11.21694322 116.58616351 9.70872644 113.63455449 8.19921875 110.68359375 C7.66013885 109.62714157 7.66013885 109.62714157 7.11016846 108.54934692 C4.81384843 104.0664257 2.43163352 99.64846732 -0.11181641 95.29956055 C-0.90234375 93.7265625 -0.90234375 93.7265625 -0.90234375 91.7265625 C-1.56234375 91.7265625 -2.22234375 91.7265625 -2.90234375 91.7265625 C-3.15669189 92.56501709 -3.41104004 93.40347168 -3.6730957 94.26733398 C-5.01511716 98.04391829 -6.71943015 101.53084546 -8.5703125 105.07421875 C-8.92821365 105.76736679 -9.28611481 106.46051483 -9.65486145 107.17466736 C-10.79582533 109.38157958 -11.94285091 111.58527888 -13.08984375 113.7890625 C-13.84086727 115.2413439 -14.59152139 116.69381638 -15.34179688 118.14648438 C-16.08442077 119.58084032 -16.82725769 121.01508599 -17.5703125 122.44921875 C-17.93325409 123.15116364 -18.29619568 123.85310852 -18.6701355 124.57632446 C-20.41236582 127.92922326 -22.18483856 131.2557853 -24.04931641 134.54248047 C-24.38167801 135.13451767 -24.71403961 135.72655487 -25.05647278 136.33653259 C-25.9539195 137.92587805 -26.86572769 139.50709005 -27.77856445 141.08764648 C-29.08124472 143.59452862 -29.08124472 143.59452862 -28.75170898 145.97094727 C-26.20206584 151.24099149 -15.66114168 154.09080654 -10.29296875 156.03125 C5.19332245 160.91977971 23.60318884 162.40635261 39.09765625 156.7265625 C40.12117188 156.36304688 41.1446875 155.99953125 42.19921875 155.625 C52.88494948 151.51510356 59.29133221 146.62370575 65.09765625 136.7265625 C64.13859375 137.5 64.13859375 137.5 63.16015625 138.2890625 C61.64421875 139.495625 61.64421875 139.495625 60.09765625 140.7265625 C59.4428125 141.28214844 58.78796875 141.83773437 58.11328125 142.41015625 C52.76613168 146.81871042 47.6663831 149.55517273 41.09765625 151.7265625 C39.24140625 152.3453125 39.24140625 152.3453125 37.34765625 152.9765625 C34.13016008 153.71906162 31.38311584 153.78162607 28.09765625 153.7265625 C29.16242825 133.67947587 34.05427027 114.89761746 48.84375 100.61328125 C51.2337558 98.61263515 53.68285246 97.02828177 56.34765625 95.4140625 C68.27268636 88.11640847 77.02424556 78.89881228 82.09765625 65.7265625 C90.83350142 69.27430748 95.6146315 81.56356021 99.09765625 89.7265625 C103.58551036 102.20648557 102.83325181 118.501486 97.66015625 130.640625 C91.07795606 143.64047038 91.07795606 143.64047038 86.7578125 148.19140625 C85.93603516 149.44630859 85.93603516 149.44630859 85.09765625 150.7265625 C86.26334991 155.47758883 88.4988824 159.66240176 90.80859375 163.94140625 C91.35524185 164.96790283 91.35524185 164.96790283 91.91293335 166.01513672 C93.09537694 168.23367831 94.2840303 170.44882815 95.47265625 172.6640625 C96.7022226 174.96770565 97.93014216 177.27222147 99.15795898 179.57679749 C99.97660871 181.11315847 100.79578131 182.64924096 101.61547852 184.18504333 C105.53481418 191.53176425 109.38652815 198.91258384 113.21630859 206.30639648 C113.64637207 207.13469971 114.07643555 207.96300293 114.51953125 208.81640625 C114.93009766 209.61030762 115.34066406 210.40420898 115.76367188 211.22216797 C116.74281422 213.06038946 117.75717692 214.87996297 118.79101562 216.68798828 C119.35111328 217.67138184 119.91121094 218.65477539 120.48828125 219.66796875 C121.00938477 220.56330322 121.53048828 221.4586377 122.06738281 222.38110352 C123.09765625 224.7265625 123.09765625 224.7265625 122.09765625 227.7265625 C111.85462847 232.9087373 98.90687374 233.38334523 87.8203125 231.03125 C68.36724967 224.53780126 59.15447012 209.03590328 50.47070312 191.73852539 C47.64804727 186.08334612 44.86263109 180.41015471 42.09765625 174.7265625 C41.37288086 174.73703613 40.64810547 174.74750977 39.90136719 174.75830078 C36.5501669 174.80041736 33.19902261 174.82606297 29.84765625 174.8515625 C28.708125 174.86832031 27.56859375 174.88507813 26.39453125 174.90234375 C18.74803368 174.94578976 11.58669048 174.25989265 4.09765625 172.7265625 C2.82535156 172.46617187 1.55304688 172.20578125 0.2421875 171.9375 C-25.33729933 165.52013754 -47.89892767 149.71928286 -62.15234375 127.3515625 C-65.69497922 121.36013318 -68.5573065 115.27747628 -70.90234375 108.7265625 C-71.14855469 108.04335937 -71.39476562 107.36015625 -71.6484375 106.65625 C-74.45871311 97.3920311 -73.93321024 86.51728198 -69.90234375 77.7265625 C-65.1043006 69.41249301 -58.66654991 62.35604235 -50.90234375 56.7265625 C-50.24234375 57.0565625 -49.58234375 57.3865625 -48.90234375 57.7265625 C-49.36125 58.21125 -49.82015625 58.6959375 -50.29296875 59.1953125 C-59.30698396 69.04255601 -62.15060467 78.31385788 -62.0703125 91.578125 C-61.90403101 94.6949362 -61.47768241 97.66115812 -60.90234375 100.7265625 C-56.46907819 93.61295477 -52.53099713 86.3072939 -48.72738647 78.84051514 C-43.5396571 68.66236042 -38.22938756 58.57007975 -32.69091797 48.57763672 C-29.4493397 42.6814015 -26.34706684 36.72326822 -23.296875 30.7265625 C-22.89389694 29.93569244 -22.49091888 29.14482239 -22.07572937 28.32998657 C-20.05432805 24.35989133 -18.04243029 20.38536529 -16.04370117 16.40380859 C-15.29893412 14.93573602 -14.5539098 13.46779393 -13.80859375 12 C-13.47362381 11.32493408 -13.13865387 10.64986816 -12.79353333 9.9543457 C-9.55947569 3.62033131 -7.39064475 0.3820214 0 0 Z " fill="#62BC00" transform="translate(251.90234375,83.2734375)"/>
<path d="M0 0 C5.81843605 1.8861963 8.63709449 9.21704434 11.22851562 14.27734375 C11.71255859 15.23898438 12.19660156 16.200625 12.6953125 17.19140625 C13.75730121 19.26525252 14.82115064 21.33814684 15.88671875 23.41015625 C16.42570801 24.45945312 16.96469727 25.50875 17.52001953 26.58984375 C19.98511085 31.3304614 22.55489691 36.0114588 25.1328125 40.69140625 C29.29684466 48.2657194 33.34607095 55.89085147 37.3203125 63.56640625 C42.06262886 72.72390266 46.99419813 81.7507363 52.1328125 90.69140625 C49.67693137 93.25619563 47.291181 95.32374932 44.3203125 97.25390625 C39.11273956 101.10634869 36.21436471 106.07965798 33.1328125 111.69140625 C32.66875 112.53574219 32.2046875 113.38007813 31.7265625 114.25 C27.70024216 122.31491604 25.97169929 130.92844294 24.1328125 139.69140625 C21.29485397 136.2140549 19.31383882 132.38255068 17.296875 128.3984375 C16.93564545 127.69297287 16.57441589 126.98750824 16.20223999 126.26066589 C15.05054721 124.01020586 13.90388951 121.75723064 12.7578125 119.50390625 C11.25209947 116.55100726 9.74388269 113.59939824 8.234375 110.6484375 C7.6952951 109.59198532 7.6952951 109.59198532 7.14532471 108.51419067 C4.84900468 104.03126945 2.46678977 99.61331107 -0.07666016 95.2644043 C-0.8671875 93.69140625 -0.8671875 93.69140625 -0.8671875 91.69140625 C-1.5271875 91.69140625 -2.1871875 91.69140625 -2.8671875 91.69140625 C-3.12226074 92.53203613 -3.37733398 93.37266602 -3.64013672 94.23876953 C-4.96986147 97.98030701 -6.65884323 101.42747617 -8.5 104.93359375 C-8.85552948 105.61962677 -9.21105896 106.30565979 -9.57736206 107.01248169 C-10.71155 109.19927579 -11.85156748 111.3829613 -12.9921875 113.56640625 C-14.47579923 116.41701394 -15.95696764 119.2688857 -17.4375 122.12109375 C-17.80176086 122.82192078 -18.16602173 123.5227478 -18.5413208 124.24481201 C-22.39993383 131.6854021 -26.14169061 139.18348638 -29.8671875 146.69140625 C-44.38305876 136.29825828 -56.23919442 122.26102705 -60.8671875 104.69140625 C-60.40779182 100.62567006 -58.93413747 97.59399012 -56.98046875 94.02734375 C-56.37871826 92.91866943 -55.77696777 91.80999512 -55.15698242 90.66772461 C-54.83506927 90.08151337 -54.51315613 89.49530212 -54.18148804 88.8913269 C-52.46139606 85.75793731 -50.76332027 82.6126289 -49.0625 79.46875 C-48.7125145 78.823116 -48.36252899 78.17748199 -48.00193787 77.51228333 C-44.43813789 70.92629228 -40.988113 64.2838174 -37.5546875 57.62890625 C-36.39458328 55.3840877 -35.23442834 53.13929535 -34.07421875 50.89453125 C-33.52846191 49.83814453 -32.98270508 48.78175781 -32.42041016 47.69335938 C-28.61359317 40.33582689 -24.76517468 33.00103957 -20.8671875 25.69140625 C-20.10414307 24.25982178 -20.10414307 24.25982178 -19.32568359 22.79931641 C-17.70067706 19.75952977 -16.06665929 16.72476384 -14.4296875 13.69140625 C-13.92099121 12.74031982 -13.41229492 11.7892334 -12.88818359 10.80932617 C-12.40816895 9.9247876 -11.9281543 9.04024902 -11.43359375 8.12890625 C-11.01021729 7.34386719 -10.58684082 6.55882813 -10.15063477 5.75 C-7.31568107 1.20285723 -5.46442929 0.35358072 0 0 Z " fill="#2BDD96" transform="translate(251.8671875,83.30859375)"/>
<path d="M0 0 C-3.09760313 2.06506876 -6.17763442 3.45433141 -9.5625 5 C-20.25817716 10.18087018 -27.68120636 17.84311644 -32 29 C-32.36351562 29.90105469 -32.72703125 30.80210937 -33.1015625 31.73046875 C-37.01775172 45.98199214 -33.4627695 60.86809528 -26.6875 73.5625 C-22.57073102 80.68767708 -17.49535474 87.13353776 -12.51513672 93.66601562 C6.98507276 119.31308358 6.98507276 119.31308358 5 135 C2.53687912 148.18717025 -3.35449455 159.31010496 -14.20703125 167.38671875 C-31.64018046 179.29949284 -51.67591235 184.87155252 -72.6875 181.1875 C-76.21576384 180.3604702 -79.04669988 179.16575342 -82 177 C-80.62347226 172.47712314 -78.8089089 168.49280258 -76.578125 164.328125 C-76.24149338 163.6966153 -75.90486176 163.06510559 -75.55802917 162.41445923 C-74.45988673 160.35717773 -73.35510107 158.30355068 -72.25 156.25 C-71.48279895 154.81675917 -70.71595722 153.38332594 -69.94946289 151.94970703 C-68.00816497 148.32156759 -66.06117363 144.69651591 -64.112854 141.07214355 C-62.73477166 138.50614259 -61.36111651 135.93779171 -59.98806763 133.36909485 C-58.47348594 130.53651067 -56.95538037 127.70581753 -55.4375 124.875 C-54.86870117 123.811604 -54.29990234 122.74820801 -53.71386719 121.65258789 C-51.3198533 117.20035764 -48.90668479 112.77996213 -46.28515625 108.45703125 C-45.89207275 107.80428223 -45.49898926 107.1515332 -45.09399414 106.47900391 C-44.10152754 104.85375956 -43.08341369 103.24424616 -42.0625 101.63671875 C-40.74174098 99.07862882 -40.74174098 99.07862882 -41.54296875 96.578125 C-43.00580789 93.98972331 -44.52674821 91.44792246 -46.12304688 88.93945312 C-55.25634592 74.52713723 -60.07178013 59.94162033 -56.9375 42.75 C-53.25342552 27.92997313 -44.70476012 17.99748362 -32 10 C-22.5599278 4.84116657 -10.97366496 -0.53230464 0 0 Z " fill="#8FB70D" transform="translate(207,133)"/>
<path d="M0 0 C2.51700557 2.27650694 3.96232817 4.53350295 5.49609375 7.55078125 C5.96587646 8.46520996 6.43565918 9.37963867 6.91967773 10.32177734 C7.42055908 11.30871582 7.92144043 12.2956543 8.4375 13.3125 C12.50501385 21.22434449 16.64582457 29.08248436 20.9375 36.875 C25.45110731 45.1165182 29.91832784 53.38162491 34.3125 61.6875 C34.89443115 62.76950684 35.4763623 63.85151367 36.07592773 64.96630859 C36.86785522 66.47378662 36.86785522 66.47378662 37.67578125 68.01171875 C38.14927002 68.90334717 38.62275879 69.79497559 39.1105957 70.71362305 C40 73 40 73 39 76 C28.75697222 81.1821748 15.80921749 81.65678273 4.72265625 79.3046875 C-16.24920636 72.30426211 -25.30949096 54.73060094 -34.5625 36.25 C-34.8819458 35.61319305 -35.2013916 34.97638611 -35.53051758 34.32028198 C-36.44413243 32.49237582 -37.35066114 30.66117426 -38.25390625 28.828125 C-38.78314697 27.7546582 -39.3123877 26.68119141 -39.85766602 25.57519531 C-41 23 -41 23 -41 21 C-40.2471875 20.87625 -39.494375 20.7525 -38.71875 20.625 C-23.82115394 17.7322629 -10.76194326 10.76194326 0 0 Z " fill="#2CE097" transform="translate(335,235)"/>
<path d="M0 0 C11.68124999 10.96340781 24.04677407 27.21990442 24.625 43.625 C24.10265051 55.67634895 19.53618556 64.99382039 10.921875 73.33203125 C-0.30944853 83.07954172 -12.63210293 84.72273124 -27 84 C-32.62119258 83.37542305 -37.35495711 82.40636478 -42 79 C-40.62347226 74.47712314 -38.8089089 70.49280258 -36.578125 66.328125 C-36.2415387 65.69666061 -35.90495239 65.06519623 -35.5581665 64.41459656 C-34.46003425 62.35723822 -33.35522683 60.30355454 -32.25 58.25 C-31.48208721 56.81601576 -30.71451286 55.38185023 -29.94726562 53.94750977 C-28.38742195 51.03339697 -26.82468734 48.12086141 -25.25976562 45.20947266 C-23.50395368 41.94169082 -21.75628095 38.66969093 -20.01370239 35.39483643 C-13.63626857 23.41049475 -7.18662353 11.52141233 0 0 Z " fill="#2ADE96" transform="translate(167,231)"/>
<path d="M0 0 C0.66 0.33 1.32 0.66 2 1 C1.54109375 1.4846875 1.0821875 1.969375 0.609375 2.46875 C-8.07491795 11.95579272 -11.55152451 21.47870911 -11.3125 34.37109375 C-9.49521448 55.47432185 1.46909673 73.18766858 17.30078125 86.85546875 C23.72385965 91.95860919 30.38214964 95.32300567 38 98.25 C38.64026123 98.4965332 39.28052246 98.74306641 39.94018555 98.99707031 C48.79906368 102.22986218 57.4727655 103.36941825 66.875 103.3125 C67.84099121 103.30758545 68.80698242 103.3026709 69.80224609 103.29760742 C76.90118258 103.18110409 83.29508166 102.45781464 90 100 C91.02351563 99.63648438 92.04703125 99.27296875 93.1015625 98.8984375 C101.91457652 95.50881672 108.56447898 90.83774108 115 84 C113.35827783 92.35957381 106.80982092 99.28032214 100 104 C96.07677465 106.1784986 92.08379755 108.14187212 88 110 C88.33 111.32 88.66 112.64 89 114 C88.01 114 87.02 114 86 114 C85.67 113.34 85.34 112.68 85 112 C84.38511719 112.81210938 83.77023437 113.62421875 83.13671875 114.4609375 C79.95504436 117.61696222 76.99153375 117.64470441 72.65307617 117.6953125 C71.71568604 117.67210937 70.7782959 117.64890625 69.8125 117.625 C68.83579346 117.60953125 67.85908691 117.5940625 66.8527832 117.578125 C39.3627463 116.64785124 15.83365886 101.78330681 -2.625 82.25 C-10.44412198 73.32570177 -16.01239793 63.13945519 -20 52 C-20.24621094 51.31679687 -20.49242187 50.63359375 -20.74609375 49.9296875 C-23.55636936 40.6654686 -23.03086649 29.79071948 -19 21 C-14.20195685 12.68593051 -7.76420616 5.62947985 0 0 Z " fill="#A3D900" transform="translate(201,140)"/>
<path d="M0 0 C-1.58220587 0.96019364 -3.16581331 1.91807798 -4.75 2.875 C-5.63171875 3.40867188 -6.5134375 3.94234375 -7.421875 4.4921875 C-10 6 -10 6 -12.203125 6.9453125 C-14.50714638 8.29767287 -14.91433196 9.59034654 -16 12 C-17.10120174 13.39413225 -18.22832759 14.76802086 -19.375 16.125 C-27.78643476 26.97733128 -28.12479849 37.71220893 -26.6796875 50.9296875 C-25.70976855 56.44940809 -23.79307442 61.56069119 -21.70703125 66.75 C-21 69 -21 69 -22 71 C-24.64 67.04 -27.28 63.08 -30 59 C-29.54625 60.60875 -29.0925 62.2175 -28.625 63.875 C-28.36976563 64.77992188 -28.11453125 65.68484375 -27.8515625 66.6171875 C-27.1395685 69.14569726 -27.1395685 69.14569726 -25 71 C-24.79375 71.969375 -24.5875 72.93875 -24.375 73.9375 C-21.83468723 83.27122493 -13.60416215 90.80586285 -6.94970703 97.49658203 C-3.99523223 100.54861476 -2.30971579 102.69574472 -2 107 C-5.465 107.99 -5.465 107.99 -9 109 C-8.50628906 109.7734375 -8.01257813 110.546875 -7.50390625 111.34375 C-3.81802904 117.33608156 -1.13644221 121.90500517 -1 129 C-1.99 129.33 -2.98 129.66 -4 130 C-4.391875 129.08863281 -4.78375 128.17726563 -5.1875 127.23828125 C-9.12820804 118.54886596 -13.91724389 111.12792762 -19.8125 103.625 C-34.08336301 85.40941288 -47.3071771 66.6547283 -44.58984375 42.328125 C-41.85527569 27.32893732 -34.38133094 16.59611331 -22.08984375 7.9296875 C-6.12406511 -2.04135504 -6.12406511 -2.04135504 0 0 Z " fill="#D7F000" transform="translate(194,137)"/>
<path d="M0 0 C2.74084921 2.36709704 3.7367158 4.64405806 5 8 C3.59464944 9.08400515 2.18915013 10.16781792 0.78295898 11.25073242 C-0.41137322 12.17129876 -1.60456084 13.09335186 -2.79663086 14.0168457 C-6.00026211 16.49208156 -9.23964744 18.87348313 -12.5625 21.1875 C-17.09445472 24.58886137 -19.40328019 28.25508887 -20.625 33.875 C-18.70732737 43.46336314 -10.06976537 50.87524232 -2.32080078 56.14111328 C10.03300002 64.05605867 25.27051732 71.56102747 40 73 C39 76 39 76 36.69140625 77.16796875 C24.72087292 81.06847961 11.21535906 82.40204619 -0.609375 77.26953125 C-18.29677924 67.87671037 -25.93085837 53.48957296 -34.5625 36.25 C-34.8819458 35.61319305 -35.2013916 34.97638611 -35.53051758 34.32028198 C-36.44413243 32.49237582 -37.35066114 30.66117426 -38.25390625 28.828125 C-38.78314697 27.7546582 -39.3123877 26.68119141 -39.85766602 25.57519531 C-41 23 -41 23 -41 21 C-40.2471875 20.87625 -39.494375 20.7525 -38.71875 20.625 C-23.82115394 17.7322629 -10.76194326 10.76194326 0 0 Z " fill="#12C196" transform="translate(335,235)"/>
<path d="M0 0 C0.6328125 1.7734375 0.6328125 1.7734375 1 4 C0.1796875 5.7265625 0.1796875 5.7265625 -1.125 7.625 C-3.68074097 11.91697804 -4.94377424 16.18935424 -6.125 21 C-8.16026388 29.03851683 -11.14212428 36.48747163 -14.5 44.0625 C-14.96293457 45.10857422 -15.42586914 46.15464844 -15.90283203 47.23242188 C-22.20553269 61.19079401 -27.74469393 68.96301845 -41 77 C-41.8146875 77.56460938 -42.629375 78.12921875 -43.46875 78.7109375 C-46.50042195 80.25484451 -48.64274595 80.23422703 -52 80 C-50.935228 59.95291337 -46.04338598 41.17105496 -31.25390625 26.88671875 C-28.86390045 24.88607265 -26.41480379 23.30171927 -23.75 21.6875 C-14.97387191 16.35083076 -7.62534381 9.61728491 -2 1 C-1.34 0.67 -0.68 0.34 0 0 Z " fill="#79C700" transform="translate(332,157)"/>
<path d="M0 0 C8.73584517 3.54774498 13.51697525 15.83699771 17 24 C21.48616402 36.47522322 20.75515927 52.81517454 15.5390625 64.9375 C15.03117187 65.948125 14.52328125 66.95875 14 68 C13.23816406 69.546875 13.23816406 69.546875 12.4609375 71.125 C3.3067592 88.13181465 -11.6927367 100.01259127 -30 106 C-34.31887523 106.92547326 -38.60462232 107.57652507 -43 108 C-41.05773267 106.05773267 -39.82187541 105.36132987 -37.375 104.25 C-19.8192082 95.63054987 -8.9620202 78.72365143 -2 61 C-1.16481385 58.32498349 -0.5399087 55.75353435 0 53 C1.74627478 55.61941217 2.38722388 57.03824877 3 60 C8.99052742 41.22968075 7.72205763 18.01813448 0 0 Z " fill="#42990B" transform="translate(334,149)"/>
<path d="M0 0 C11.68124999 10.96340781 24.04677407 27.21990442 24.625 43.625 C24.10265051 55.67634895 19.53618556 64.99382039 10.921875 73.33203125 C-0.30944853 83.07954172 -12.63210293 84.72273124 -27 84 C-32.62119258 83.37542305 -37.35495711 82.40636478 -42 79 C-41.505 78.01 -41.505 78.01 -41 77 C-38.734375 76.32421875 -38.734375 76.32421875 -35.75 75.6875 C-18.72534768 71.62731137 -2.87615818 63.91658313 10 52 C10.58910156 51.47664063 11.17820313 50.95328125 11.78515625 50.4140625 C14.41387703 47.7633747 15.34416694 45.4406818 15.5625 41.8125 C14.77183436 29.09774169 7.16944525 19.14199826 -1 10 C-2.65 10.66 -4.3 11.32 -6 12 C-4.43358249 7.69235185 -2.31663844 3.93828536 0 0 Z " fill="#0FBE96" transform="translate(167,231)"/>
<path d="M0 0 C3.65512 1.44632705 5.00592203 3.1184009 6.9375 6.5 C7.45441406 7.40234375 7.97132813 8.3046875 8.50390625 9.234375 C10.28698853 12.53051666 11.94798997 15.87401157 13.58984375 19.2421875 C15.26453005 22.51733577 17.09146673 25.69478223 18.9375 28.875 C22.55987623 35.12336399 25.84816786 41.50002783 29 48 C29.33 48.66 29.66 49.32 30 50 C29.59149607 52.2224899 29.10043112 54.43024103 28.5625 56.625 C28.27503906 57.81351563 27.98757813 59.00203125 27.69140625 60.2265625 C27.34916016 61.59941406 27.34916016 61.59941406 27 63 C24.16204147 59.52264865 22.18102632 55.69114443 20.1640625 51.70703125 C19.80283295 51.00156662 19.44160339 50.29610199 19.06942749 49.56925964 C17.91773471 47.31879961 16.77107701 45.06582439 15.625 42.8125 C14.11928697 39.85960101 12.61107019 36.90799199 11.1015625 33.95703125 C10.5624826 32.90057907 10.5624826 32.90057907 10.01251221 31.82278442 C7.71619218 27.3398632 5.33397727 22.92190482 2.79052734 18.57299805 C2 17 2 17 2 15 C1.34 15 0.68 15 0 15 C-0.25507324 15.84062988 -0.51014648 16.68125977 -0.77294922 17.54736328 C-2.10267397 21.28890076 -3.79165573 24.73606992 -5.6328125 28.2421875 C-5.98834198 28.92822052 -6.34387146 29.61425354 -6.71017456 30.32107544 C-7.8443625 32.50786954 -8.98437998 34.69155505 -10.125 36.875 C-11.60861173 39.72560769 -13.08978014 42.57747945 -14.5703125 45.4296875 C-14.93457336 46.13051453 -15.29883423 46.83134155 -15.6741333 47.55340576 C-19.53274633 54.99399585 -23.27450311 62.49208013 -27 70 C-39.7600907 60.8639648 -49.78454046 49.47948349 -55.6875 34.8125 C-55.94345947 34.17699219 -56.19941895 33.54148438 -56.46313477 32.88671875 C-57.6704574 29.65202179 -58.12237571 28.36712714 -57 25 C-56.68289062 25.64324219 -56.36578125 26.28648437 -56.0390625 26.94921875 C-53.09766292 32.6451334 -49.82501742 37.85644653 -45.9375 42.9375 C-45.5264502 43.48043701 -45.11540039 44.02337402 -44.69189453 44.58276367 C-42.09474421 47.90490442 -39.28195342 50.3849676 -36 53 C-36 53.66 -36 54.32 -36 55 C-34.68 55.66 -33.36 56.32 -32 57 C-26.9507382 49.30542705 -22.87997434 41.13427199 -18.73754883 32.93139648 C-14.73807917 25.02633175 -10.52995323 17.38615519 -5.77270508 9.90893555 C-4.00543388 7.00891678 -2.50469727 4.04224338 -1 1 C-0.67 0.67 -0.34 0.34 0 0 Z " fill="#23A783" transform="translate(249,160)"/>
<path d="M0 0 C24.36842105 0 24.36842105 0 30.875 5.375 C36.1726355 11.91913797 36.81182792 16.70131457 36 25 C34.2931915 30.2152482 31.45098136 32.85813081 27 36 C21.4489806 38.49580717 16.08183911 38.22911799 10.125 38.125 C6.78375 38.08375 3.4425 38.0425 0 38 C0 25.46 0 12.92 0 0 Z " fill="#F3F6F3" transform="translate(186,342)"/>
<path d="M0 0 C1.34578125 0.68835938 1.34578125 0.68835938 2.71875 1.390625 C13.4808346 6.7432039 24.02025517 9.54240178 35.73046875 11.98828125 C36.52541748 12.15755127 37.32036621 12.32682129 38.1394043 12.5012207 C39.66058289 12.82263635 41.18410958 13.13322492 42.71020508 13.43041992 C51.42519563 15.24641692 58.48586574 18.88931592 64 26 C67.95033694 32.71659355 70.14825531 38.14246867 70 46 C66.3445483 45.36242122 63.92071763 43.7608967 60.875 41.6875 C52.47320522 36.29185198 44.87386042 33.90348403 35.125 32.125 C24.05370252 30.09410376 13.33739557 26.67174446 6.015625 17.51953125 C2.09244086 11.50456088 0.11827261 7.21462931 0 0 Z " fill="#63A30D" transform="translate(225,251)"/>
<path d="M0 0 C3.63 0 7.26 0 11 0 C14.90553377 8.11738392 18.45104611 16.35757222 21.875 24.6875 C22.28032959 25.66799316 22.68565918 26.64848633 23.10327148 27.65869141 C23.47911377 28.57956543 23.85495605 29.50043945 24.2421875 30.44921875 C24.5810498 31.27768311 24.91991211 32.10614746 25.26904297 32.9597168 C26 35 26 35 26 37 C22.7 37 19.4 37 16 37 C14 33 14 33 14 30 C8.39 30 2.78 30 -3 30 C-3.66 32.31 -4.32 34.62 -5 37 C-8.3 37 -11.6 37 -15 37 C-12.48998474 28.90630167 -9.18401726 21.19978454 -5.8125 13.4375 C-5.24770722 12.12970392 -4.68325152 10.82176222 -4.11914062 9.51367188 C-2.74997252 6.34076099 -1.37626474 3.16984025 0 0 Z " fill="#F9FAF9" transform="translate(335,343)"/>
<path d="M0 0 C3.63 0 7.26 0 11 0 C14.90553377 8.11738392 18.45104611 16.35757222 21.875 24.6875 C22.28032959 25.66799316 22.68565918 26.64848633 23.10327148 27.65869141 C23.47911377 28.57956543 23.85495605 29.50043945 24.2421875 30.44921875 C24.5810498 31.27768311 24.91991211 32.10614746 25.26904297 32.9597168 C26 35 26 35 26 37 C22.7 37 19.4 37 16 37 C14 33 14 33 14 30 C8.39 30 2.78 30 -3 30 C-3.66 32.31 -4.32 34.62 -5 37 C-8.3 37 -11.6 37 -15 37 C-12.48998474 28.90630167 -9.18401726 21.19978454 -5.8125 13.4375 C-5.24770722 12.12970392 -4.68325152 10.82176222 -4.11914062 9.51367188 C-2.74997252 6.34076099 -1.37626474 3.16984025 0 0 Z " fill="#F9FAF9" transform="translate(154,343)"/>
<path d="M0 0 C-3.09760313 2.06506876 -6.17763442 3.45433141 -9.5625 5 C-20.25817716 10.18087018 -27.68120636 17.84311644 -32 29 C-32.36351562 29.90105469 -32.72703125 30.80210937 -33.1015625 31.73046875 C-37.07118919 46.17645804 -33.43238504 61.31799272 -26.3125 74.0625 C-22.89407096 79.95758786 -18.88476455 85.29310982 -14.58984375 90.57421875 C-14.06519531 91.37472656 -13.54054687 92.17523438 -13 93 C-14 96 -14 96 -16.9375 97.5625 C-17.948125 98.036875 -18.95875 98.51125 -20 99 C-20.99 99.99 -20.99 99.99 -22 101 C-29.75247952 92.89593411 -36.55217413 84.79938848 -40 74 C-41.05635787 71.69318317 -42.1647562 69.42080906 -43.29296875 67.1484375 C-44 65 -44 65 -43 61 C-40.36 65.29 -37.72 69.58 -35 74 C-35.804375 71.855 -36.60875 69.71 -37.4375 67.5 C-41.61847473 56.35073406 -43.64547907 40.97303695 -39.4375 29.5 C-34.65348984 19.54179446 -26.31579161 10.85246551 -17 5 C-14.75390625 4.328125 -14.75390625 4.328125 -13 4 C-13 3.34 -13 2.68 -13 2 C-4.57142857 -0.28571429 -4.57142857 -0.28571429 0 0 Z " fill="#A8C10D" transform="translate(207,133)"/>
<path d="M0 0 C0.66 0.33 1.32 0.66 2 1 C1.54109375 1.4846875 1.0821875 1.969375 0.609375 2.46875 C-8.07491795 11.95579272 -11.55152451 21.47870911 -11.3125 34.37109375 C-9.85042301 51.34946284 -2.47308973 64.87372753 8 78 C2.85714286 83.57142857 2.85714286 83.57142857 -1 84 C-14.24265629 68.71459354 -23.27835835 51.64669336 -22 31 C-20.07730925 18.72300216 -11.37547985 8.67641643 -1.76171875 1.27734375 C-1.18035156 0.85582031 -0.59898437 0.43429688 0 0 Z " fill="#CCEB00" transform="translate(201,140)"/>
<path d="M0 0 C2.74084921 2.36709704 3.7367158 4.64405806 5 8 C3.59477916 9.0839051 2.18938785 10.16758981 0.78320312 11.25024414 C-0.41233021 12.17193749 -1.60632677 13.09562741 -2.79882812 14.02124023 C-5.97153744 16.47629237 -9.18003658 18.8087556 -12.5 21.0625 C-16.77594748 24.3509935 -19.44010736 27.79313614 -21 33 C-21.9729623 42.0653891 -21.32287747 50.44156437 -18 59 C-17.608125 60.19625 -17.21625 61.3925 -16.8125 62.625 C-16.544375 63.40875 -16.27625 64.1925 -16 65 C-16.66 65 -17.32 65 -18 65 C-24.92579907 56.39129649 -29.64701503 46.08284012 -34.5625 36.25 C-35.04112488 35.29546936 -35.04112488 35.29546936 -35.52941895 34.32165527 C-36.44332432 32.4932562 -37.35023223 30.66159931 -38.25390625 28.828125 C-38.78314697 27.7546582 -39.3123877 26.68119141 -39.85766602 25.57519531 C-41 23 -41 23 -41 21 C-40.2471875 20.87625 -39.494375 20.7525 -38.71875 20.625 C-23.82115394 17.7322629 -10.76194326 10.76194326 0 0 Z " fill="#149582" transform="translate(335,235)"/>
<path d="M0 0 C0.66 0.33 1.32 0.66 2 1 C-2.48085377 18.26913113 -2.48085377 18.26913113 -7.44140625 24.87890625 C-9.30802074 27.41918611 -10.83825695 30.06082597 -12.375 32.8125 C-12.87773437 33.70582031 -13.38046875 34.59914062 -13.8984375 35.51953125 C-15.27058091 38.15694214 -15.27058091 38.15694214 -15 42 C-15.84498047 42.29003906 -15.84498047 42.29003906 -16.70703125 42.5859375 C-19.95275284 44.58755797 -21.65380857 47.48902771 -23.6875 50.625 C-25.10126758 52.76940266 -26.53471774 54.88975578 -28 57 C-28.33 57 -28.66 57 -29 57 C-30.06020736 39.95814839 -24.32410529 22.67514912 -13.0859375 9.80859375 C-9.09862537 5.62884377 -5.26266544 2.4208261 0 0 Z " fill="#94D300" transform="translate(310,178)"/>
<path d="M0 0 C11.68124999 10.96340781 24.04677407 27.21990442 24.625 43.625 C24.10317098 55.66434095 19.54612379 64.98607848 10.9375 73.31640625 C7.92072119 75.93784107 4.70716733 78.45266059 1 80 C0.01 79.67 -0.98 79.34 -2 79 C-1.41992188 78.46632813 -0.83984375 77.93265625 -0.2421875 77.3828125 C9.12109334 68.4521585 15.84172256 58.45019502 16.5 45.25 C16.10780149 31.25564397 7.97425184 20.04261515 -1 10 C-2.65 10.66 -4.3 11.32 -6 12 C-4.43358249 7.69235185 -2.31663844 3.93828536 0 0 Z " fill="#21A683" transform="translate(167,231)"/>
<path d="M0 0 C3.3 0 6.6 0 10 0 C11.17176518 2.12232979 12.33754785 4.24757791 13.5 6.375 C13.83386719 6.97828125 14.16773438 7.5815625 14.51171875 8.203125 C17 12.7734375 17 12.7734375 17 15 C17.66 15 18.32 15 19 15 C19.27585937 14.28457031 19.55171875 13.56914062 19.8359375 12.83203125 C20.98248522 10.04261145 22.26227115 7.37709642 23.625 4.6875 C24.07101562 3.80449219 24.51703125 2.92148437 24.9765625 2.01171875 C25.31429688 1.34785156 25.65203125 0.68398438 26 0 C29.3 0 32.6 0 36 0 C34.84860917 3.26337057 33.36580029 6.19442377 31.65234375 9.1875 C26.33969268 18.54441399 22.32625449 25.96246333 23 37 C19.7 37 16.4 37 13 37 C13.06703125 36.24460937 13.1340625 35.48921875 13.203125 34.7109375 C13.37704778 22.33343311 7.29003157 13.25212371 1.08569336 2.91088867 C0 1 0 1 0 0 Z " fill="#F6F8F6" transform="translate(281,343)"/>
<path d="M0 0 C0.495 1.485 0.495 1.485 1 3 C-5.00056692 14.63499756 -14.42856706 20.73499801 -26 26 C-25.505 27.98 -25.505 27.98 -25 30 C-25.99 30 -26.98 30 -28 30 C-28.495 29.01 -28.495 29.01 -29 28 C-29.61101562 28.81339844 -30.22203125 29.62679687 -30.8515625 30.46484375 C-34.07036834 33.66219088 -37.12152939 33.62063341 -41.50341797 33.64257812 C-42.45104004 33.61615234 -43.39866211 33.58972656 -44.375 33.5625 C-45.34711426 33.55025391 -46.31922852 33.53800781 -47.32080078 33.52539062 C-55.67228103 33.2884692 -63.12080667 31.74912665 -71 29 C-68.6953125 26.984375 -68.6953125 26.984375 -66 25 C-62.875 25.25 -62.875 25.25 -59 26 C-55.26071781 26.40821858 -51.72229543 26.6184737 -48 26 C-46.60890785 24.54420589 -45.22333747 23.07726736 -43.95703125 21.51171875 C-41.09703506 19.30250014 -37.98448909 19.01809119 -34.5 18.5 C-21.91245622 16.58112279 -10.02361161 11.92715336 -1.5 2.125 C-1.005 1.42375 -0.51 0.7225 0 0 Z " fill="#79C600" transform="translate(315,224)"/>
<path d="M0 0 C10.56 0 21.12 0 32 0 C32 2.31 32 4.62 32 7 C28.37 7 24.74 7 21 7 C21 16.9 21 26.8 21 37 C17.7 37 14.4 37 11 37 C11 27.1 11 17.2 11 7 C7.37 7 3.74 7 0 7 C0 4.69 0 2.38 0 0 Z " fill="#F8FAF8" transform="translate(246,343)"/>
<path d="M0 0 C6.52559866 7.45782704 9.15342606 14.42998513 9.0625 24.25 C9.05347656 25.51328125 9.04445312 26.7765625 9.03515625 28.078125 C9.02355469 29.04234375 9.01195312 30.0065625 9 31 C8.01 31 7.02 31 6 31 C6 31.99 6 32.98 6 34 C7.485 33.505 7.485 33.505 9 33 C7.62988278 43.63021978 1.83806286 52.83982365 -6 60 C-8.90289251 62.18055534 -11.87417229 64.15489337 -15 66 C-15.66 65.67 -16.32 65.34 -17 65 C-16.55269531 64.5153125 -16.10539063 64.030625 -15.64453125 63.53125 C-4.42442202 51.0910436 -1.58355401 40.39988003 -1 24 C-0.34 24 0.32 24 1 24 C-0.54292615 17.87847188 -2.39652535 12.79792221 -6.01171875 7.59375 C-7 6 -7 6 -7 4 C-4.35261084 2.5393715 -3.10551666 2 0 2 C0 1.34 0 0.68 0 0 Z " fill="#ABDD02" transform="translate(192,242)"/>
<path d="M0 0 C1.34578125 0.68835938 1.34578125 0.68835938 2.71875 1.390625 C13.4808346 6.7432039 24.02025517 9.54240178 35.73046875 11.98828125 C36.52541748 12.15755127 37.32036621 12.32682129 38.1394043 12.5012207 C39.66058289 12.82263635 41.18410958 13.13322492 42.71020508 13.43041992 C49.59920989 14.86592487 55.96627057 17.35331541 60.9375 22.5 C61.50339844 23.0671875 62.06929688 23.634375 62.65234375 24.21875 C64.11555088 26.15272812 64.58935343 27.6296856 65 30 C64.5875 29.61328125 64.175 29.2265625 63.75 28.828125 C57.41405914 23.11446404 51.59261695 19.8724385 43.078125 18.78515625 C40.86644908 18.82762149 40.86644908 18.82762149 39.0625 20.515625 C36.35906151 22.46128149 34.99211597 22.15675363 31.75 21.6875 C30.85796875 21.56761719 29.9659375 21.44773437 29.046875 21.32421875 C28.37140625 21.21722656 27.6959375 21.11023438 27 21 C27.825 21.474375 28.65 21.94875 29.5 22.4375 C30.7375 23.2109375 30.7375 23.2109375 32 24 C32 24.33 32 24.66 32 25 C22.16343439 24.45352413 13.7868151 20.13132348 7 13 C2 6.93401015 2 6.93401015 2 4 C1.34 4 0.68 4 0 4 C0 2.68 0 1.36 0 0 Z " fill="#79C700" transform="translate(225,251)"/>
<path d="M0 0 C0.33 0 0.66 0 1 0 C2.04851658 24.96437311 2.04851658 24.96437311 -4 37 C-4.50789063 38.03125 -5.01578125 39.0625 -5.5390625 40.125 C-10.5392358 49.41442149 -17.43568293 57.77140577 -26 64 C-26.66 64 -27.32 64 -28 64 C-26.69298464 60.27784758 -24.88089125 57.11367076 -22.77636719 53.78710938 C-12.41279672 37.24662888 -6.22902635 18.40854535 0 0 Z " fill="#22890B" transform="translate(352,180)"/>
<path d="M0 0 C0.66 0.33 1.32 0.66 2 1 C2.309375 2.423125 2.309375 2.423125 2.625 3.875 C5.13893122 13.24510726 13.37817551 20.78810426 20.05029297 27.49658203 C23.00476777 30.54861476 24.69028421 32.69574472 25 37 C22.69 37.66 20.38 38.32 18 39 C18.49371094 39.7734375 18.98742187 40.546875 19.49609375 41.34375 C23.18197096 47.33608156 25.86355779 51.90500517 26 59 C24.515 59.495 24.515 59.495 23 60 C21.65673469 57.42141033 20.32525335 54.83782579 19 52.25 C18.6184375 51.52039063 18.236875 50.79078125 17.84375 50.0390625 C17.4828125 49.33007812 17.121875 48.62109375 16.75 47.890625 C16.41484375 47.24125977 16.0796875 46.59189453 15.734375 45.92285156 C15 44 15 44 15 40 C14.4590691 36.71271198 13.25621656 34.67724797 11.26953125 32.0234375 C10.71604004 31.27449219 10.16254883 30.52554688 9.59228516 29.75390625 C9.00495605 28.96886719 8.41762695 28.18382812 7.8125 27.375 C-2.96143269 12.70761936 -2.96143269 12.70761936 -5 8 C-4.67 7.34 -4.34 6.68 -4 6 C-2.68 6 -1.36 6 0 6 C0 4.02 0 2.04 0 0 Z " fill="#BFE601" transform="translate(167,207)"/>
<path d="M0 0 C0.33 0 0.66 0 1 0 C1.25153591 13.76868884 1.21584384 26.75020508 -3 40 C-3.33 40 -3.66 40 -4 40 C-4.33 37.69 -4.66 35.38 -5 33 C-5.27972656 33.71542969 -5.55945313 34.43085938 -5.84765625 35.16796875 C-12.54375897 51.8113366 -21.07096237 64.60967227 -34 77 C-34.66 76.67 -35.32 76.34 -36 76 C-35.39414062 75.19820313 -34.78828125 74.39640625 -34.1640625 73.5703125 C-27.19334878 64.17909501 -21.37910841 54.3775139 -16 44 C-15.63100586 43.2894043 -15.26201172 42.57880859 -14.88183594 41.84667969 C-8.04175077 28.48277802 -3.5374299 14.56297077 0 0 Z " fill="#4AB200" transform="translate(340,172)"/>
<path d="M0 0 C2.97 0 5.94 0 9 0 C9 12.21 9 24.42 9 37 C6.03 37 3.06 37 0 37 C0 24.79 0 12.58 0 0 Z " fill="#FFFFFF" transform="translate(230,343)"/>
<path d="M0 0 C10.44444444 0 10.44444444 0 15 4 C17.34766157 7.75783413 17.22428292 10.52771482 16.58203125 14.8046875 C15.58298637 18.57289704 14.30450762 19.95120528 11 22 C7.37 22 3.74 22 0 22 C0 14.74 0 7.48 0 0 Z " fill="#074407" transform="translate(196,350)"/>
<path d="M0 0 C2.72426311 2.35277269 3.8141763 4.62496331 5 8 C3.59477916 9.0839051 2.18938785 10.16758981 0.78320312 11.25024414 C-0.41233021 12.17193749 -1.60632677 13.09562741 -2.79882812 14.02124023 C-5.97153744 16.47629237 -9.18003658 18.8087556 -12.5 21.0625 C-16.73345112 24.17480411 -18.82871501 28.30250843 -21 33 C-21.66 33 -22.32 33 -23 33 C-25.78214415 22.54211887 -25.78214415 22.54211887 -24 17 C-19.95131573 13.6513463 -15.55414901 11.45356196 -10.8984375 9.06884766 C-6.73706577 6.72593544 -3.36564249 3.34740053 0 0 Z " fill="#20A584" transform="translate(335,235)"/>
<path d="M0 0 C0.66 0 1.32 0 2 0 C5.15288251 9.45864754 3.30792027 20.25000278 -1 29 C-5.14192721 36.42690396 -12.0188372 43.66873205 -20 47 C-20.99 46.67 -21.98 46.34 -23 46 C-22.41992188 45.46632813 -21.83984375 44.93265625 -21.2421875 44.3828125 C-10.85237194 34.47305443 -6.11001671 24.36377691 -3.5390625 10.44140625 C-2.73243118 6.78818471 -1.41003467 3.46099418 0 0 Z " fill="#129383" transform="translate(188,264)"/>
<path d="M0 0 C0.66 0.33 1.32 0.66 2 1 C-0.13773165 8.16065357 -3.01517119 12.33982205 -8.48828125 17.3515625 C-12.13842271 21.20038973 -14.82656572 25.58604064 -17.54931641 30.1237793 C-18.73828125 32.03515625 -18.73828125 32.03515625 -21 35 C-22.32 35 -23.64 35 -25 35 C-24.79528244 24.55940465 -19.10270703 15.77877123 -12 8.4375 C-8.24001961 4.91825006 -4.72553225 2.06742036 0 0 Z " fill="#ACDE00" transform="translate(310,178)"/>
<path d="M0 0 C3.72084234 1.5859328 6.31110503 3.94325567 9.3125 6.625 C15.89733877 12.34120937 23.20258515 16.18651023 31 20 C30.34 21.32 29.68 22.64 29 24 C23.9680279 23.51255114 21.0286944 21.98176516 16.9375 19.0625 C11.80348897 15.36644732 11.80348897 15.36644732 6 13 C5.16082031 13.20496094 4.32164062 13.40992188 3.45703125 13.62109375 C2.64621094 13.74613281 1.83539063 13.87117187 1 14 C-1.23828125 12.34765625 -1.23828125 12.34765625 -3.3125 10.0625 C-4.00988281 9.31097656 -4.70726562 8.55945313 -5.42578125 7.78515625 C-5.94527344 7.19605469 -6.46476563 6.60695312 -7 6 C-4.74259377 3.66475218 -2.7194239 1.81294927 0 0 Z " fill="#B7E200" transform="translate(208,219)"/>
<path d="M0 0 C-3.17166338 12.09196665 -10.52871225 21.26159595 -21 28 C-39.66571983 38.66681233 -39.66571983 38.66681233 -46.4375 37.625 C-46.953125 37.41875 -47.46875 37.2125 -48 37 C-34.63106796 31 -34.63106796 31 -31 31 C-20.27076895 24.28485189 -14.50115984 14.82514804 -9.5546875 3.46875 C-7.02830952 -0.54298589 -4.46221622 -1.48740541 0 0 Z " fill="#73AA0D" transform="translate(210,275)"/>
<path d="M0 0 C-2.62357471 3.85029735 -5.08156073 7.29520752 -9.5625 8.94140625 C-12.38187963 9.45001593 -15.1436177 9.78118002 -18 10 C-19.83363236 10.14202408 -21.66699075 10.28764815 -23.5 10.4375 C-24.69109375 10.49744141 -24.69109375 10.49744141 -25.90625 10.55859375 C-28.1019429 10.81304065 -28.1019429 10.81304065 -29.453125 12.546875 C-31 14 -31 14 -33.453125 14.14453125 C-38.8304796 13.50615815 -43.85655847 12.71448051 -49 11 C-46.9375 8.9375 -46.9375 8.9375 -44 7 C-40.875 7.25 -40.875 7.25 -37 8 C-33.26071781 8.40821858 -29.72229543 8.6184737 -26 8 C-24.61960484 6.55540042 -23.24293584 5.10038999 -21.99609375 3.5390625 C-18.96735807 1.20379467 -15.55735307 0.72165387 -11.875 0.0625 C-10.81599487 -0.12953003 -10.81599487 -0.12953003 -9.7355957 -0.32543945 C-6.25938419 -0.87818226 -3.34131313 -1.25515648 0 0 Z " fill="#8DD000" transform="translate(293,242)"/>
<path d="M0 0 C2.30671569 2.12037932 3.19035462 3.41116598 4.5625 6.375 C6.5603971 10.54115751 9.14257017 14.09489448 11.9375 17.75 C12.35652588 18.30478027 12.77555176 18.85956055 13.20727539 19.43115234 C15.83945433 22.81297339 18.66047962 25.34750081 22 28 C22 28.66 22 29.32 22 30 C22.556875 30.2475 23.11375 30.495 23.6875 30.75 C26.40371009 32.21822167 28.61608641 34.04396834 31 36 C31.99 36.66 32.98 37.32 34 38 C33.01 40.31 32.02 42.62 31 45 C15.99479144 34.35994302 5.4912021 20.61202624 0 3 C0 2.01 0 1.02 0 0 Z " fill="#1EA181" transform="translate(191,185)"/>
<path d="M0 0 C7.92741541 1.76594457 13.75412975 6.76533512 19.27734375 12.47265625 C20.87331178 15.39859764 21.08643694 18.24972547 21.40234375 21.53515625 C20.74234375 21.53515625 20.08234375 21.53515625 19.40234375 21.53515625 C18.38378749 20.33842688 17.4125576 19.10123374 16.46484375 17.84765625 C8.95729284 9.10683208 -2.84469482 7.13270024 -13.59765625 4.53515625 C-8.58990341 0.73617134 -6.26284222 -0.8830912 0 0 Z " fill="#63BD00" transform="translate(272.59765625,269.46484375)"/>
<path d="M0 0 C1.34578125 0.68835938 1.34578125 0.68835938 2.71875 1.390625 C11.97493109 5.99236968 20.9217757 8.81874103 31 11 C32.30010487 11.29937899 33.59960122 11.60141437 34.8984375 11.90625 C37.92968877 12.61639129 40.96330024 13.31362266 44 14 C43.67 14.99 43.34 15.98 43 17 C32.4564053 17.64552621 21.66672239 15.14288102 12 11 C12 11.66 12 12.32 12 13 C11.01 13 10.02 13 9 13 C9 12.01 9 11.02 9 10 C8.01 10.33 7.02 10.66 6 11 C2 6.25 2 6.25 2 4 C1.34 4 0.68 4 0 4 C0 2.68 0 1.36 0 0 Z " fill="#A9DA00" transform="translate(225,251)"/>
<path d="M0 0 C1.574398 4.72319399 -0.66546662 8.25697546 -2.4375 12.75 C-2.75654297 13.63171875 -3.07558594 14.5134375 -3.40429688 15.421875 C-5.99932612 22.0399382 -9.36851353 25.75874527 -15 30 C-16.29220914 31.06184018 -17.58394955 32.12425132 -18.875 33.1875 C-24.59707709 37.40851939 -31.03821746 39.75108342 -38 41 C-35.48578733 38.23096848 -32.65341323 36.36707556 -29.5 34.375 C-28.5409375 33.76398438 -27.581875 33.15296875 -26.59375 32.5234375 C-24 31 -24 31 -21 30 C-20.71125 29.4225 -20.4225 28.845 -20.125 28.25 C-18.93224458 25.86448916 -17.44943939 24.43079977 -15.55078125 22.59375 C-8.99957983 15.86102915 -4.1977125 8.36362414 0 0 Z " fill="#519A0E" transform="translate(326,195)"/>
<path d="M0 0 C0.33 0.66 0.66 1.32 1 2 C-3.96550047 14.67465035 -11.17334821 24.01899026 -23 31 C-23.66 30.67 -24.32 30.34 -25 30 C-24.32904297 29.27296875 -24.32904297 29.27296875 -23.64453125 28.53125 C-17.06645414 21.2378596 -12.70061488 14.48508641 -10 5 C-9.34 5.33 -8.68 5.66 -8 6 C-7.690625 5.071875 -7.690625 5.071875 -7.375 4.125 C-5.45224112 1.15346355 -3.33405473 0.86975341 0 0 Z " fill="#8ACF03" transform="translate(200,277)"/>
<path d="M0 0 C6.41891214 2.86694495 11.43038317 5.58861165 16 11 C16 11.66 16 12.32 16 13 C16.99 12.67 17.98 12.34 19 12 C19 14.31 19 16.62 19 19 C15.3445483 18.36242122 12.92071763 16.7608967 9.875 14.6875 C5.44803955 11.79545622 1.15277195 9.63058089 -3.80859375 7.82421875 C-5.95973912 7.01514268 -7.96374936 6.06218997 -10 5 C-9.0925 4.731875 -8.185 4.46375 -7.25 4.1875 C-4.25433521 3.09293017 -2.45876445 1.95097614 0 0 Z " fill="#398D0D" transform="translate(276,278)"/>
<path d="M0 0 C0.98360805 2.58496994 1.08360981 3.75666391 0.171875 6.41015625 C-4.97910422 16.01871364 -12.21537678 23.52791007 -21 30 C-21.66 30 -22.32 30 -23 30 C-22.78610266 25.25536805 -22.33339461 21.36597756 -18.921875 17.87109375 C-17.19341608 16.55884349 -15.44360816 15.27433823 -13.67578125 14.015625 C-10.18091873 11.38299864 -7.51018333 8.30533107 -4.69140625 4.98046875 C-3.19640041 3.22996537 -1.65180738 1.60129339 0 0 Z " fill="#93D100" transform="translate(332,157)"/>
<path d="M0 0 C2.64 0.33 5.28 0.66 8 1 C6.35028279 10.6949135 -3.51630869 19.36636621 -11 25 C-11.66 25 -12.32 25 -13 25 C-11.28506983 20.08060031 -8.61472132 15.81305288 -5.9375 11.375 C-5.02731714 9.86356029 -4.11965477 8.35059912 -3.21484375 6.8359375 C-2.81386475 6.17126465 -2.41288574 5.5065918 -1.99975586 4.82177734 C-0.85596326 2.86652802 -0.85596326 2.86652802 0 0 Z " fill="#2B900C" transform="translate(337,219)"/>
<path d="M0 0 C0.22084624 6.09781001 0.01167675 11.21642935 -2 17 C-2.7425 17.144375 -3.485 17.28875 -4.25 17.4375 C-6.51264678 17.90031411 -8.7594607 18.43986518 -11 19 C-10.67 14.05 -10.34 9.1 -10 4 C-1.125 0 -1.125 0 0 0 Z " fill="#7FAF0D" transform="translate(212,258)"/>
<path d="M0 0 C6.8359375 -0.1953125 6.8359375 -0.1953125 9 0 C11 2 11 2 11.1875 4.375 C11 7 11 7 10.4375 9.0625 C9.91957523 11.35616685 10.2883622 12.78601575 11 15 C9.125 14.75 9.125 14.75 7 14 C5.75 11.9375 5.75 11.9375 5 10 C4.67 11.65 4.34 13.3 4 15 C2.68 15 1.36 15 0 15 C0 10.05 0 5.1 0 0 Z " fill="#C6DB00" transform="translate(279,394)"/>
<path d="M0 0 C1.0725 0.309375 2.145 0.61875 3.25 0.9375 C4.10851562 1.185 4.96703125 1.4325 5.8515625 1.6875 C8.32626247 2.41248253 10.7899534 3.1644814 13.25 3.9375 C9.59393856 8.65499863 9.59393856 8.65499863 6.3359375 9.33984375 C-0.09208171 9.44502952 -6.45798521 8.12989536 -12.75 6.9375 C-12.14929688 6.48890625 -11.54859375 6.0403125 -10.9296875 5.578125 C-9.2309159 4.29947971 -7.54939911 2.99789931 -5.875 1.6875 C-2.75 -0.0625 -2.75 -0.0625 0 0 Z " fill="#509A0D" transform="translate(262.75,274.0625)"/>
<path d="M0 0 C6.8359375 -0.1953125 6.8359375 -0.1953125 9 0 C9.66 0.66 10.32 1.32 11 2 C10.625 5.125 10.625 5.125 10 8 C9.34 8 8.68 8 8 8 C8.7425 9.175625 8.7425 9.175625 9.5 10.375 C11 13 11 13 11 15 C9.68 15 8.36 15 7 15 C6.34 13.02 5.68 11.04 5 9 C4.34 9 3.68 9 3 9 C3 10.98 3 12.96 3 15 C2.01 15 1.02 15 0 15 C0 10.05 0 5.1 0 0 Z " fill="#CDE100" transform="translate(219,394)"/>
<path d="M0 0 C6.8359375 -0.1953125 6.8359375 -0.1953125 9 0 C11 2 11 2 11.25 4.5 C11 7 11 7 9 9 C6.375 9.125 6.375 9.125 4 9 C4 10.98 4 12.96 4 15 C2.68 15 1.36 15 0 15 C0 10.05 0 5.1 0 0 Z " fill="#C1D800" transform="translate(249,394)"/>
<path d="M0 0 C-3.39971286 4.41644942 -6.80248207 7.61083845 -11.5625 10.5625 C-12.1723877 10.94599609 -12.78227539 11.32949219 -13.41064453 11.72460938 C-21.4323379 16.64374897 -29.50910689 20.45244847 -39 21 C-36.70218748 19.46812498 -34.50377134 18.14015022 -32.0625 16.875 C-31.39347656 16.52179688 -30.72445312 16.16859375 -30.03515625 15.8046875 C-28 15 -28 15 -24 15 C-17.63898076 11.26491568 -12.51039335 6.77894148 -8 1 C-5.07175348 0.02391783 -3.04386724 -0.08226668 0 0 Z " fill="#5FA00C" transform="translate(201,292)"/>
<path d="M0 0 C2.31 1.98 4.62 3.96 7 6 C7.33 4.02 7.66 2.04 8 0 C8.99 0 9.98 0 11 0 C11 4.95 11 9.9 11 15 C8.69 13.02 6.38 11.04 4 9 C3.67 10.98 3.34 12.96 3 15 C2.01 15 1.02 15 0 15 C0 10.05 0 5.1 0 0 Z " fill="#E5F400" transform="translate(131,394)"/>
<path d="M0 0 C5.03931895 0.37328288 8.48409276 4.4318201 11.8125 7.875 C13.46270696 10.82800192 13.67934983 13.6652382 14 17 C13.34 17 12.68 17 12 17 C10.91280319 15.78939166 9.87945376 14.53009456 8.875 13.25 C5.32272555 9.0321415 2.05093949 7.12671136 -3 5 C-1.125 1.125 -1.125 1.125 0 0 Z " fill="#4AB000" transform="translate(280,274)"/>
<path d="M0 0 C2.64 0 5.28 0 8 0 C8 0.99 8 1.98 8 3 C6.35 3 4.7 3 3 3 C3 3.99 3 4.98 3 6 C4.32 6 5.64 6 7 6 C7 6.99 7 7.98 7 9 C6.01 9 5.02 9 4 9 C4 9.99 4 10.98 4 12 C5.32 12 6.64 12 8 12 C8 12.99 8 13.98 8 15 C5.36 15 2.72 15 0 15 C0 10.05 0 5.1 0 0 Z " fill="#DCED00" transform="translate(361,394)"/>
<path d="M0 0 C2.64 0 5.28 0 8 0 C8 0.99 8 1.98 8 3 C6.35 3 4.7 3 3 3 C3 3.99 3 4.98 3 6 C4.32 6 5.64 6 7 6 C7 6.99 7 7.98 7 9 C6.01 9 5.02 9 4 9 C4 9.99 4 10.98 4 12 C5.32 12 6.64 12 8 12 C8 12.99 8 13.98 8 15 C5.36 15 2.72 15 0 15 C0 10.05 0 5.1 0 0 Z " fill="#DCED00" transform="translate(191,394)"/>
<path d="M0 0 C2.64 0 5.28 0 8 0 C8 0.99 8 1.98 8 3 C6.35 3 4.7 3 3 3 C3 3.99 3 4.98 3 6 C4.32 6 5.64 6 7 6 C7 6.99 7 7.98 7 9 C5.68 9 4.36 9 3 9 C3 9.99 3 10.98 3 12 C4.65 12 6.3 12 8 12 C8 12.99 8 13.98 8 15 C5.36 15 2.72 15 0 15 C0 10.05 0 5.1 0 0 Z " fill="#EBF900" transform="translate(103,394)"/>
<path d="M0 0 C0.94875 0.04125 1.8975 0.0825 2.875 0.125 C2.875 1.115 2.875 2.105 2.875 3.125 C1.225 3.125 -0.425 3.125 -2.125 3.125 C-1.691875 3.558125 -1.25875 3.99125 -0.8125 4.4375 C-0.255625 4.994375 0.30125 5.55125 0.875 6.125 C1.4525 6.57875 2.03 7.0325 2.625 7.5 C3.875 9.125 3.875 9.125 3.625 11.75 C2.875 14.125 2.875 14.125 1.875 15.125 C-0.45797433 15.16592937 -2.79205225 15.16741723 -5.125 15.125 C-4.795 13.805 -4.465 12.485 -4.125 11.125 C-2.805 10.795 -1.485 10.465 -0.125 10.125 C-0.95 9.733125 -1.775 9.34125 -2.625 8.9375 C-5.125 7.125 -5.125 7.125 -5.5625 4.5625 C-4.87371545 0.72498609 -3.85225637 0.15409025 0 0 Z " fill="#DDEE00" transform="translate(394.125,393.875)"/>
<path d="M0 0 C0.94875 0.04125 1.8975 0.0825 2.875 0.125 C2.875 1.115 2.875 2.105 2.875 3.125 C1.225 3.125 -0.425 3.125 -2.125 3.125 C-1.691875 3.558125 -1.25875 3.99125 -0.8125 4.4375 C-0.255625 4.994375 0.30125 5.55125 0.875 6.125 C1.4525 6.57875 2.03 7.0325 2.625 7.5 C3.875 9.125 3.875 9.125 3.625 11.75 C2.875 14.125 2.875 14.125 1.875 15.125 C-0.45797433 15.16592937 -2.79205225 15.16741723 -5.125 15.125 C-4.795 13.805 -4.465 12.485 -4.125 11.125 C-2.805 10.795 -1.485 10.465 -0.125 10.125 C-0.95 9.733125 -1.775 9.34125 -2.625 8.9375 C-5.125 7.125 -5.125 7.125 -5.5625 4.5625 C-4.87371545 0.72498609 -3.85225637 0.15409025 0 0 Z " fill="#DDEE00" transform="translate(338.125,393.875)"/>
<path d="M0 0 C0.66 0 1.32 0 2 0 C2 0.99 2 1.98 2 3 C2.99 3 3.98 3 5 3 C4.67 2.01 4.34 1.02 4 0 C8 1.33333333 12 2.66666667 16 4 C15.3125 6.4375 15.3125 6.4375 14 9 C11.875 10.1875 11.875 10.1875 9 10 C5.35544341 7.97830257 1.62525881 5.87910228 0.265625 1.79296875 C0.17796875 1.20128906 0.0903125 0.60960937 0 0 Z " fill="#8ED100" transform="translate(232,261)"/>
<path d="M0 0 C0 3.3 0 6.6 0 10 C-0.99 10 -1.98 10 -3 10 C-3 10.99 -3 11.98 -3 13 C-2.01 12.67 -1.02 12.34 0 12 C-0.33 12.99 -0.66 13.98 -1 15 C-2.98 15.33 -4.96 15.66 -7 16 C-7 11.38 -7 6.76 -7 2 C-1 0 -1 0 0 0 Z " fill="#9CD700" transform="translate(201,263)"/>
<path d="M0 0 C3.46692734 3.7971109 4.51061867 8.17724141 6 13 C2.37 13 -1.26 13 -5 13 C-2.05357143 3.89285714 -2.05357143 3.89285714 0 0 Z " fill="#154F15" transform="translate(340,353)"/>
<path d="M0 0 C3.46692734 3.7971109 4.51061867 8.17724141 6 13 C2.37 13 -1.26 13 -5 13 C-2.05357143 3.89285714 -2.05357143 3.89285714 0 0 Z " fill="#154F15" transform="translate(159,353)"/>
<path d="M0 0 C8.50990168 1.57523712 14.3600667 5.42577472 20 12 C20.77734375 14.28515625 20.77734375 14.28515625 21 16 C20.5875 15.61328125 20.175 15.2265625 19.75 14.828125 C12.46986287 8.26300134 5.65606733 5.50381376 -4 4 C-2.68 2.68 -1.36 1.36 0 0 Z " fill="#90D000" transform="translate(269,265)"/>
<path d="M0 0 C0.66 0 1.32 0 2 0 C3.30724495 1.70766233 4.54632741 3.46781811 5.75 5.25 C8.828382 9.61478615 11.28601013 12.52515532 16 15 C15.67 15.99 15.34 16.98 15 18 C14.01 18.33 13.02 18.66 12 19 C6.31605744 13.81758179 1.15160418 7.78703782 0 0 Z " fill="#73AA0C" transform="translate(225,255)"/>
<path d="M0 0 C1.7074998 1.28062485 3.37373596 2.61767557 5 4 C5 4.66 5 5.32 5 6 C5.99 5.67 6.98 5.34 8 5 C8 7.31 8 9.62 8 12 C4.50155614 11.36610765 2.15913124 9.94822306 -0.75 7.9375 C-1.54921875 7.38964844 -2.3484375 6.84179688 -3.171875 6.27734375 C-4.07679688 5.64505859 -4.07679688 5.64505859 -5 5 C-3.35 3.35 -1.7 1.7 0 0 Z " fill="#20840C" transform="translate(287,285)"/>
<path d="M0 0 C3.74302063 1.24767354 5.91015117 3.62272793 8.0859375 6.79296875 C9.85653146 11.06812084 9.05882121 15.59642571 8 20 C7.34 20.99 6.68 21.98 6 23 C5.81824219 22.01 5.63648438 21.02 5.44921875 20 C4.1469339 13.09727888 2.7803368 6.48745253 0 0 Z " fill="#59A40A" transform="translate(334,149)"/>
<path d="M0 0 C3.63 0 7.26 0 11 0 C11 0.99 11 1.98 11 3 C9.68 3 8.36 3 7 3 C7 6.96 7 10.92 7 15 C6.01 15 5.02 15 4 15 C4 11.04 4 7.08 4 3 C2.68 3 1.36 3 0 3 C0 2.01 0 1.02 0 0 Z " fill="#E2F100" transform="translate(161,394)"/>
<path d="M0 0 C-4.38748386 5.6249793 -8.91132843 9.30620592 -15 13 C-15.66 12.67 -16.32 12.34 -17 12 C-16.52949219 11.46890625 -16.05898437 10.9378125 -15.57421875 10.390625 C-14.95160156 9.68421875 -14.32898438 8.9778125 -13.6875 8.25 C-12.76517578 7.20585937 -12.76517578 7.20585937 -11.82421875 6.140625 C-9.97938965 4.03251823 -9.97938965 4.03251823 -8.39453125 1.78515625 C-7 0 -7 0 -5 -0.8125 C-3 -1 -3 -1 0 0 Z " fill="#75C404" transform="translate(192,295)"/>
<path d="M0 0 C1.32 0 2.64 0 4 0 C4 4.95 4 9.9 4 15 C2.68 15 1.36 15 0 15 C0 10.05 0 5.1 0 0 Z " fill="#BFD600" transform="translate(309,394)"/>
<path d="M0 0 C2.9719385 1.12451727 5.33440687 2.22293791 8 4 C7.01 6.31 6.02 8.62 5 11 C2.69 9.35 0.38 7.7 -2 6 C-1.34 4.02 -0.68 2.04 0 0 Z " fill="#1B7670" transform="translate(217,219)"/>
<path d="M0 0 C3.65316671 1.24976756 4.78065836 1.67098753 7 5 C5.515 7.475 5.515 7.475 4 10 C2.02 8.35 0.04 6.7 -2 5 C-1.125 1.125 -1.125 1.125 0 0 Z " fill="#1C927D" transform="translate(211,214)"/>
<path d="M0 0 C2.5 0.125 2.5 0.125 3.5 1.125 C3.625 3.625 3.625 3.625 3.5 6.125 C2.5 7.125 2.5 7.125 0 7.25 C-2.5 7.125 -2.5 7.125 -3.5 6.125 C-3.625 3.625 -3.625 3.625 -3.5 1.125 C-2.5 0.125 -2.5 0.125 0 0 Z " fill="#90D200" transform="translate(332.5,175.875)"/>
<path d="M0 0 C0 3.21047398 -0.20828937 4.39056098 -2 7 C-4.53125 8.30078125 -4.53125 8.30078125 -7.5 9.3125 C-8.96953125 9.83263672 -8.96953125 9.83263672 -10.46875 10.36328125 C-13 11 -13 11 -15 10 C-14.00097656 9.36191406 -13.00195312 8.72382813 -11.97265625 8.06640625 C-10.66922829 7.23183727 -9.36584519 6.39719823 -8.0625 5.5625 C-7.40314453 5.14162109 -6.74378906 4.72074219 -6.06445312 4.28710938 C-2.86871187 2.35604912 -2.86871187 2.35604912 0 0 Z " fill="#60A10D" transform="translate(303,225)"/>
<path d="M0 0 C1.70884005 1.62339805 3.37446717 3.29319053 5 5 C5 5.66 5 6.32 5 7 C0.545 7.495 0.545 7.495 -4 8 C-2.68 5.36 -1.36 2.72 0 0 Z " fill="#1B997C" transform="translate(167,231)"/>
<path d="M0 0 C0.66 0.33 1.32 0.66 2 1 C0.92492371 2.29854721 -0.16043736 3.58858361 -1.25 4.875 C-1.85328125 5.59429687 -2.4565625 6.31359375 -3.078125 7.0546875 C-4.99778784 8.99776086 -6.53859043 9.88839568 -9 11 C-10.68889872 12.3050581 -12.3603279 13.63360658 -14 15 C-12.55053895 11.66026243 -10.71827612 9.47695341 -8.125 6.9375 C-7.44695312 6.26589844 -6.76890625 5.59429687 -6.0703125 4.90234375 C-4.1292063 3.11872353 -2.1380399 1.53881347 0 0 Z " fill="#BDDF00" transform="translate(201,140)"/>
<path d="M0 0 C2 1 2 1 3 3 C1.25531628 3.70088156 -0.49601161 4.38524009 -2.25 5.0625 C-3.22453125 5.44535156 -4.1990625 5.82820313 -5.203125 6.22265625 C-8.04007395 7.01113787 -9.29409552 7.02437812 -12 6 C-11.38511719 5.73445313 -10.77023438 5.46890625 -10.13671875 5.1953125 C-9.32847656 4.84210938 -8.52023438 4.48890625 -7.6875 4.125 C-6.88699219 3.77695312 -6.08648437 3.42890625 -5.26171875 3.0703125 C-2.8038166 1.97428106 -2.8038166 1.97428106 0 0 Z " fill="#58AA0E" transform="translate(174,306)"/>
<path d="M0 0 C0.88336837 2.4667645 1.1312406 3.63859372 0.22265625 6.140625 C-0.16019531 6.83671875 -0.54304688 7.5328125 -0.9375 8.25 C-1.31777344 8.95640625 -1.69804687 9.6628125 -2.08984375 10.390625 C-2.39019531 10.92171875 -2.69054687 11.4528125 -3 12 C-4.01428828 8.95713516 -4.3858223 7.16374283 -4 4 C-2 1.6875 -2 1.6875 0 0 Z " fill="#7FC900" transform="translate(332,157)"/>
<path d="M0 0 C1.98 0.495 1.98 0.495 4 1 C4.33 3.31 4.66 5.62 5 8 C4.34 8 3.68 8 3 8 C0.8125 5.6875 0.8125 5.6875 -1 3 C-0.67 2.01 -0.34 1.02 0 0 Z " fill="#30A100" transform="translate(289,283)"/>
<path d="M0 0 C2.475 0.495 2.475 0.495 5 1 C4.67 2.32 4.34 3.64 4 5 C2.68 4.67 1.36 4.34 0 4 C0 2.68 0 1.36 0 0 Z " fill="#E9F900" transform="translate(182,164)"/>
<path d="M0 0 C1.65 0 3.3 0 5 0 C4.67 1.32 4.34 2.64 4 4 C2.68 4 1.36 4 0 4 C0 2.68 0 1.36 0 0 Z " fill="#E2F700" transform="translate(187,201)"/>
<path d="M0 0 C1.65 0 3.3 0 5 0 C4.67 1.32 4.34 2.64 4 4 C2.68 3.67 1.36 3.34 0 3 C0 2.01 0 1.02 0 0 Z " fill="#BFDA07" transform="translate(200,246)"/>
<path d="M0 0 C2.50037734 2.17424117 3.43628586 3.73045798 4 7 C2.02 5.68 0.04 4.36 -2 3 C-1.34 2.01 -0.68 1.02 0 0 Z " fill="#17977F" transform="translate(335,235)"/>
<path d="M0 0 C1.32 0.33 2.64 0.66 4 1 C3.67 2.32 3.34 3.64 3 5 C2.01 4.67 1.02 4.34 0 4 C0 2.68 0 1.36 0 0 Z " fill="#1F7815" transform="translate(341,210)"/>
</svg>
